/* XPM */
static char *cpu[] = {
/* columns rows colors chars-per-pixel */
"24 24 151 2",
"   c black",
".  c #010101",
"X  c #313527",
"o  c #323527",
"O  c #323627",
"+  c #333728",
"@  c #343829",
"#  c #35392A",
"$  c #383C2D",
"%  c #393D2E",
"&  c #393D2F",
"*  c #3A3E30",
"=  c #3B3F31",
"-  c #3B402C",
";  c #3C422D",
":  c #3C4032",
">  c #3D4032",
",  c #3D4132",
"<  c #3E4234",
"1  c #3F4530",
"2  c #404630",
"3  c #434932",
"4  c #434A33",
"5  c #444A33",
"6  c #454C34",
"7  c #464C35",
"8  c #464D35",
"9  c #474E36",
"0  c #4E553C",
"q  c #4F563E",
"w  c #51573F",
"e  c #525A3E",
"r  c #535B3F",
"t  c #545C40",
"y  c #565F42",
"u  c #585E47",
"i  c #586143",
"p  c #596244",
"a  c #5A6344",
"s  c #5B6445",
"d  c #5D6647",
"f  c #5A614A",
"g  c #5D634D",
"h  c #5F6848",
"j  c #606A49",
"k  c #616A49",
"l  c #616B4A",
"z  c #636D4B",
"x  c #646D4C",
"c  c #656F4D",
"v  c #626853",
"b  c #696F5A",
"n  c #696F5B",
"m  c #66704D",
"M  c #67714E",
"N  c #68724F",
"B  c #68734F",
"V  c #697450",
"C  c #6A7450",
"Z  c #6B7551",
"A  c #6B7651",
"S  c #6C7652",
"D  c #6C7653",
"F  c #6C7752",
"G  c #6D7752",
"H  c #6D7853",
"J  c #6E7953",
"K  c #6E7954",
"L  c #6F7A54",
"P  c #6F7A55",
"I  c #707B55",
"U  c #707B56",
"Y  c #727D57",
"T  c #727D58",
"R  c #737E59",
"E  c #747E5A",
"W  c #747F5A",
"Q  c #757F5B",
"!  c #757F5D",
"~  c #6E7460",
"^  c #737966",
"/  c #797E6C",
"(  c #7A7F6D",
")  c #76805C",
"_  c #77815D",
"`  c #77825E",
"'  c #78835F",
"]  c #798360",
"[  c #7A8461",
"{  c #7C8663",
"}  c #7C8664",
"|  c #7D8765",
" . c #7E8765",
".. c #7A806D",
"X. c #7B806E",
"o. c #7C816F",
"O. c #7D8270",
"+. c #808A68",
"@. c #808A69",
"#. c #818B69",
"$. c #828C6B",
"%. c #838C6B",
"&. c #848D6D",
"*. c #858E6E",
"=. c #808574",
"-. c #838877",
";. c #869070",
":. c #879071",
">. c #8A9375",
",. c #8C9577",
"<. c #8D9577",
"1. c #90997B",
"2. c #929B7E",
"3. c #95948A",
"4. c #95958C",
"5. c #979F84",
"6. c #A2A198",
"7. c #ADADA3",
"8. c #BDBDB6",
"9. c #D7D19A",
"0. c #D9D39C",
"q. c #DAD39C",
"w. c #DBD49D",
"e. c #DDD69E",
"r. c #DED79F",
"t. c #C4C3BA",
"y. c #C5C5BC",
"u. c #E2DCA2",
"i. c #E4DDA4",
"p. c #E5DEA4",
"a. c #E7E0A6",
"s. c #E8E1A6",
"d. c #E9E2A7",
"f. c #E9E2A8",
"g. c #EBE4A8",
"h. c #EAE4AB",
"j. c #EBE4AC",
"k. c #ECE5A9",
"l. c #EDE6AA",
"z. c #EDE6AD",
"x. c #EEE7B0",
"c. c #C9C8C0",
"v. c #CCCBC3",
"b. c #D0D0C7",
"n. c #D6D5CE",
"m. c #DEDED7",
"M. c #E0DFDA",
"N. c #E0DFDC",
"B. c #E0E0DC",
"V. c #E1E0DC",
"C. c None",
/* pixels */
"C.C.C.C.C.C.C.C.C.C.C.C.C.C.C.C.C.C.C.C.C.C.C.C.",
"C.C.C.C.C.C.C.C.C.C.C.C.C.C.C.C.C.C.C.C.C.C.C.C.",
"C.C.C.C.C.C.C.C.C.C.C.C.C.C.C.C.C.C.C.C.C.C.C.C.",
"C.C.C.C.                        C.C.C.C.C.C.C.C.",
"C.C.C.C.  ! j._ j._ j.W j.W j.  C.C.C.C.C.C.C.C.",
"C.C.C.C.  F p.F p.F s.Z i.J l.  C.C.C.C.C.C.C.C.",
"C.C.C.  + O # & , * , * # O # O   C.C.C.C.C.C.C.",
"      + ..-...=.( ^ n b b g f w +       C.C.C.C.",
"  z.s.# ..5.2.>.>.&.:.%.] Y F 9 O e.l.  C.C.C.C.",
"  _ J % O.1.*.} @.@._ T L J N 8 O N L   C.C.C.C.",
"  h.f.& ..<.&.| B.B.M.b.L Z k 4 O 9.l.  C.C.C.C.",
"  _ P , O.<. .} N.n.v.t.F F s 8 O N J   C.C.C.C.",
"  j.s., ( ;._ [ m.c.y.6.Z m a 8 O e.f.  C.C.C.C.",
"  ' Y < ~ @.[ T 8.7.4.3.z h a 8 + m L   C.C.C.C.",
"  x.f.& v | T L L L L c h y r 8 O 9.l.  C.C.C.C.",
"  _ Z + u _ L Z x k h t t r r 8 O c L   C.C.C.C.",
"      + w 0 8 4 1 - - - 1 4 5 8 O       C.C.C.C.",
"C.C.C.  + O O O + + + O O + + +   C.C.C.C.C.C.C.",
"C.C.C.C.  M e.m 9.m 9.z 9.N 0.  C.C.C.C.C.C.C.C.",
"C.C.C.C.  Y l.L l.Y l.Y l.L l.  C.C.C.C.C.C.C.C.",
"C.C.C.C.                        C.C.C.C.C.C.C.C.",
"C.C.C.C.C.C.C.C.C.C.C.C.C.C.C.C.C.C.C.C.C.C.C.C.",
"C.C.C.C.C.C.C.C.C.C.C.C.C.C.C.C.C.C.C.C.C.C.C.C.",
"C.C.C.C.C.C.C.C.C.C.C.C.C.C.C.C.C.C.C.C.C.C.C.C."
};
