/* XPM */
static char *kalarm[] = {
/* columns rows colors chars-per-pixel */
"32 32 238 2",
"   c black",
".  c gray20",
"X  c #3D3D3D",
"o  c gray25",
"O  c #555555",
"+  c gray35",
"@  c #646464",
"#  c #7C7C7C",
"$  c #8D3800",
"%  c #953F00",
"&  c #954300",
"*  c #96470D",
"=  c #9B4400",
"-  c #9D4F09",
";  c #974A12",
":  c #9D520C",
">  c #9E6538",
",  c #A34C00",
"<  c #A25202",
"1  c #AB5200",
"2  c #A85900",
"3  c #AD5D09",
"4  c #A45D18",
"5  c #AA5810",
"6  c #B05600",
"7  c #B45B00",
"8  c #BB5E00",
"9  c #B15F10",
"0  c #A06000",
"q  c #AC6C00",
"w  c #AE7400",
"e  c #B26007",
"r  c #B1630B",
"t  c #B76F0E",
"y  c #BB6300",
"u  c #BA670B",
"i  c #BE6806",
"p  c #B86C0E",
"a  c #B17600",
"s  c #B17800",
"d  c #B87200",
"f  c #BE7904",
"g  c #B2711C",
"h  c #BE7B13",
"j  c #BF7D18",
"k  c #AF6820",
"l  c #A56434",
"z  c #B2712B",
"x  c #B87E2C",
"c  c #B57D3B",
"v  c #BC7730",
"b  c #996A4A",
"n  c #B67B4E",
"m  c #C36500",
"M  c #C26801",
"N  c #C46E08",
"B  c #CB6C00",
"V  c #C67205",
"C  c #C57A00",
"Z  c #CC7200",
"A  c #C9730A",
"S  c #CD7D0A",
"D  c #D27400",
"F  c #D47B02",
"G  c #D17A0B",
"H  c #DB7600",
"J  c #E47D00",
"K  c #B88300",
"L  c #BC801F",
"P  c #BB9500",
"I  c #BF892A",
"U  c #9F806B",
"Y  c #B88040",
"T  c #B78767",
"R  c #BA8962",
"E  c #BD9273",
"W  c #CD8302",
"Q  c #C78419",
"!  c #CD8514",
"~  c #C88519",
"^  c #CA881A",
"/  c #C69C00",
"(  c #D38402",
")  c #D4830A",
"_  c #D48C01",
"`  c #DB8302",
"'  c #D18612",
"]  c #D48C14",
"[  c #D08F1A",
"{  c #DB8B11",
"}  c #D59700",
"|  c #D99202",
" . c #D99B00",
".. c #DE9312",
"X. c #DF941C",
"o. c #C78327",
"O. c #C5842E",
"+. c #C88436",
"@. c #CE8837",
"#. c #CD9423",
"$. c #CD9A2A",
"%. c #DC9E20",
"&. c #D7953C",
"*. c #CCAA00",
"=. c #CDB700",
"-. c #DEAE00",
";. c #D5B200",
":. c #D9B600",
">. c #D4AB37",
",. c #DDAE30",
"<. c #E18500",
"1. c #E58B01",
"2. c #EB990B",
"3. c #E19D1B",
"4. c #E89F16",
"5. c #F19600",
"6. c #F39A02",
"7. c #FB9200",
"8. c #FA9B00",
"9. c #E0AC00",
"0. c #E4A21D",
"q. c #EBA81D",
"w. c #E0BE00",
"e. c #F1AE00",
"r. c #FEA200",
"t. c #F8A60B",
"y. c #FFAA01",
"u. c #FFAD0C",
"i. c #FFB300",
"p. c #FDB314",
"a. c #FEBA1B",
"s. c #E1A322",
"d. c #E3AD2C",
"f. c #E5B42F",
"g. c #ECB62C",
"h. c #E7B138",
"j. c #E5BF3B",
"k. c #EABC34",
"l. c #FFBF20",
"z. c #C69642",
"x. c #C99052",
"c. c #C69960",
"v. c #C79F7C",
"b. c #DFA24A",
"n. c #DBA050",
"m. c #DBBA66",
"M. c #E2A549",
"N. c #E8B343",
"B. c #D5C400",
"V. c #DBC100",
"C. c #D8D200",
"Z. c #DBDB00",
"A. c #E4D300",
"S. c #F6CB00",
"D. c #FFC500",
"F. c #FECA00",
"G. c #FFC119",
"H. c #FFCD11",
"J. c #FFDC00",
"K. c #E8C13D",
"L. c #FFC325",
"P. c #FDC428",
"I. c #FFC92B",
"U. c #FECD31",
"Y. c #FFD134",
"T. c #FFD639",
"R. c #FFD93D",
"E. c #E4E400",
"W. c #ECEC00",
"Q. c #FFE201",
"!. c #FFEA00",
"~. c #F4F400",
"^. c #FEF300",
"/. c #FEFE00",
"(. c #F5D341",
"). c #FDDC42",
"_. c #F2D758",
"`. c #F6DE53",
"'. c #ECC46E",
"]. c #EDCB73",
"[. c #F2D761",
"{. c #F3D96F",
"}. c #F4DB78",
"|. c #FFE045",
" X c #FEE44A",
".X c #FFE94E",
"XX c #F8E65C",
"oX c #FFED53",
"OX c #FFEF59",
"+X c #FFF05B",
"@X c #FFF163",
"#X c #FFF26B",
"$X c #FFF374",
"%X c #FFF37C",
"&X c #828282",
"*X c #909090",
"=X c gray60",
"-X c #AF9F94",
";X c gray64",
":X c #AEAEAE",
">X c #B3AEAA",
",X c gray72",
"<X c #C5A48B",
"1X c #C6AB9A",
"2X c #CFB396",
"3X c #DEBA90",
"4X c #D1B6A5",
"5X c #D6BFA5",
"6X c #DBC1AF",
"7X c #DFC9B5",
"8X c #E3C888",
"9X c #E3CA98",
"0X c #F6DE80",
"qX c #F7DF8A",
"wX c #E6CFB4",
"eX c #F8E985",
"rX c #F8EB97",
"tX c #FFF482",
"yX c #FFF591",
"uX c #FFF69B",
"iX c #FFF7A2",
"pX c #FFF7A8",
"aX c #FCF1BA",
"sX c #FFF8B2",
"dX c #CBCBCB",
"fX c gray83",
"gX c #DED9D5",
"hX c #DCDCDC",
"jX c #E1D5C7",
"kX c #E2D2C8",
"lX c #EADACF",
"zX c #E4E4E4",
"xX c #EBEBEB",
"cX c #F3EDE6",
"vX c #F8F3ED",
"bX c #F3F3F3",
"nX c #FEFEFE",
"mX c None",
/* pixels */
"mXmXmXmXmXmX$ : I z.Y ; $ mXmXmXmXmXmXmXmXmXmXmXmXmXmXmXmXmXmXmX",
"mXmXmXmXmX$ #. XOX$XyXrXz $ mXmXmXmXmXmXmXmXmXmXmXmXmXmXmXmXmXmX",
"mXmXmXmX& [ T.|.oXOX#X$X#Xg $ mXmXmXmXmXmX$ $ $ $ $ mXmXmXmXmXmX",
"mXmXmXmX7 L.Y.R.|..XoXOXOXL $ $ $ $ mX$ ; x.9X8Xm.I $ mXmXmXmXmX",
"mXmXmX, ) l.I.Y.R.|.|.).h s / / / s & 4 eXiXpXuXtX#X>.$ mXmXmXmX",
"mXmXmX1 2.a.L.P.I.Y.s.f A./././././.w XX$X%XtX%X#XOXoX$.$ mXmXmX",
"mXmXmX7 ` p.p.a.0.W :.~./././././.~.0 OX+X@X@X@XOXoX.X).- mXmXmX",
"mXmXmXmXD 1.F B 1.8.r.r.i.F.^././.~.P K.oXOXoXoX.X.X|.R.j mXmXmX",
"mXmXmXmX= < ` r.r.r.r.r.r.r.8.D.^./.C.t ). X X X|.).R.Y.^ mXmXmX",
"mXmXmX$ = t.y.6.y k z z u F r.r.r.J.W.=.~ ).).).R.T.Y.I.! mXmXmX",
"mXmX$ & t.u.V b >XfXzXxXhX1Xl F r.r.F.E.*.' U.Y.Y.Y.I.L.7 mXmXmX",
"mXmX$ ) g.S n dXnXnXnXnXnXnXnX4Xr 8.r.D.E.B.W q.I.L.L...1 mXmXmX",
"mXmX$ p.p.> ;XdXnXnXnXnXnXnXnXnXlX5 6.r.J.W.Z.;._ ) F , mXmXmXmX",
"mXmX< a.^ -X@ . ;XnXnXnXnXnXnXnXnXlX9 r.y.^./.~.E.E.W.K $ mXmXmX",
"mXmX3 L.p dX@ . X gXnXnXnXnXbX=XdXnX6XZ r.D./././././.V.$ mXmXmX",
"mXmXr I.c hXxXO . + nXnXnXnX# . *XnXnXn 8.r.^././././.~.$ mXmXmX",
"mXmX9 U.g hXnXxXO . =XnXnXhX. . :XnXbXkXD r.F./././././.& mXmXmX",
"mXmX= Y.~ gXnXnXxX+ . gXnX@ . ;XbXbXbXbXv t.i./././././.q mXmXmX",
"mXmX, d.f.<XnXnXnXbX+ X o X ;XbXbXbXbXxXT u.r./././././.< mXmXmX",
"mXmX, ~ ).c nXnXnXnXdX. . @ bXbXbXbXxXxXE p.u.!././././.& mXmXmX",
"mXmXmX1 (.,.wXnXnXnXzX. . # bXbXxXxXxXzXE p.p.Q./.^.^.w.= mXmXmX",
"mXmXmX1 ~ oXO.vXnXnXnX,X&XhXbXxXxXxXzXzXR a.p.J.!.^.!.d = mXmXmX",
"mXmXmXmX6 j.`.O.nXnXbXbXbXxXxXxXzXzXzXhXo.G.a.Q.!.Q.-., mXmXmXmX",
"mXmXmXmX7 i _.[.+.cXbXbXxXxXxXzXzXhXhXv.0.L.G.Q.Q.9.1 , mXmXmXmX",
"mXmXmXmX1 2 N {.}.&.wXxXxXzXzXzXhXhX2X! I.P.H.S.W 1 1 mXmXmXmXmX",
"mXmXmXmX6 1._ A ].sX'.n.3XkXhXhX6Xx.%.T.Y.P.| y 2 mXmXmXmXmXmXmX",
"mXmXmXmXm 7.5._ M M.aXsX0XN.h.d.k.).|.T.3.M C  .1 mXmXmXmXmXmXmX",
"mXmXmXmX8 J 7.B 2 Z G M.qXyX%X@XOX|.g.S W } < y 1 mXmXmXmXmXmXmX",
"mXmXmXmXM m B B mXmXmXD D D X.X.{ Z y } e.i.e = mXmXmXmXmXmXmXmX",
"mXmXmXmXmXmXmXmXmXmXmXmXmXmXmXmXmXmX= ( y.r.` = mXmXmXmXmXmXmXmX",
"mXmXmXmXmXmXmXmXmXmXmXmXmXmXmXmXmXmXmXM 8.8.J , mXmXmXmXmXmXmXmX",
"mXmXmXmXmXmXmXmXmXmXmXmXmXmXmXmXmXmXmXy B H 8 1 mXmXmXmXmXmXmXmX"
};
