/* XPM */
static char *kworldclock[] = {
/* columns rows colors chars-per-pixel */
"32 32 257 2",
"   c #000000",
".  c #00010A",
"X  c #000311",
"o  c #00031A",
"O  c #000928",
"+  c #000831",
"@  c #00134B",
"#  c #001849",
"$  c #041C5A",
"%  c #031D63",
"&  c #001A6D",
"*  c #0B225B",
"=  c #052666",
"-  c #062E75",
";  c #01346A",
":  c #013367",
">  c #053972",
",  c #003B78",
"<  c #093E79",
"1  c #0F3775",
"2  c #15316F",
"3  c #173679",
"4  c #0D427B",
"5  c #1B447B",
"6  c #13457B",
"7  c #22437D",
"8  c #0017BE",
"9  c #002992",
"0  c #003A98",
"q  c #1C3F89",
"w  c #163C93",
"e  c #0127A2",
"r  c #0031A5",
"t  c #0039AA",
"y  c #113CAF",
"u  c #103DDE",
"i  c #0E2ECB",
"p  c #0B4281",
"a  c #0C5098",
"s  c #124982",
"d  c #11498C",
"f  c #194489",
"g  c #144D93",
"h  c #124B99",
"j  c #174497",
"k  c #17518F",
"l  c #18539D",
"z  c #1B589C",
"x  c #1A5498",
"c  c #0143B4",
"v  c #004DB9",
"b  c #0049B7",
"n  c #0751BB",
"m  c #164EA6",
"M  c #124EB9",
"N  c #1A56A4",
"B  c #1D59A5",
"V  c #1C5AAE",
"C  c #254182",
"Z  c #2E4A8C",
"A  c #2C559F",
"S  c #304E91",
"D  c #315984",
"F  c #264B9A",
"G  c #2344B4",
"H  c #2658A7",
"J  c #235ABB",
"K  c #295CBE",
"L  c #285CB2",
"P  c #355CAB",
"I  c #2662AB",
"U  c #2866B8",
"Y  c #316DAD",
"T  c #3569B9",
"R  c #3873B8",
"E  c #1F61C2",
"W  c #214DDA",
"Q  c #2D5DD6",
"!  c #2A54D4",
"~  c #345FD0",
"^  c #256CCA",
"/  c #3066C4",
"(  c #3E64C7",
")  c #3B68C7",
"_  c #336FD6",
"`  c #3676C7",
"'  c #387DD3",
"]  c #2770E9",
"[  c #2777F1",
"{  c #3065E8",
"}  c #3279EC",
"|  c #3975E6",
" . c #307CF0",
".. c #4C759F",
"X. c #527699",
"o. c #4C6FBB",
"O. c #4873BA",
"+. c #5B79BD",
"@. c #456BC0",
"#. c #4478C5",
"$. c #467AD6",
"%. c #457DDB",
"&. c #447FE4",
"*. c #3C80C8",
"=. c #3983D0",
"-. c #3F84EE",
";. c #4481BD",
":. c #6D88A8",
">. c #6A83B5",
",. c #4886C7",
"<. c #4B87D2",
"1. c #598BCD",
"2. c #568ECE",
"3. c #5689D6",
"4. c #5C94DB",
"5. c #5A9BDC",
"6. c #5397DF",
"7. c #4986E5",
"8. c #478BF2",
"9. c #5992E3",
"0. c #5B98E8",
"q. c #5896F2",
"w. c #568EE8",
"e. c #5EA4E6",
"r. c #5BAEFE",
"t. c #56A7F0",
"y. c #5DB0FF",
"u. c #628ED5",
"i. c #6194DB",
"p. c #649EDC",
"a. c #699CDC",
"s. c #6695D4",
"d. c #7694C4",
"f. c #7D98D8",
"g. c #6883C2",
"h. c #6597E4",
"j. c #629CF3",
"k. c #769AE3",
"l. c #74A2DE",
"z. c #65A2E5",
"x. c #65A7EA",
"c. c #6AACEB",
"v. c #69A7E7",
"b. c #6DA5F5",
"n. c #62AAF2",
"m. c #62B2FF",
"M. c #6AB5FD",
"N. c #6DB8FF",
"B. c #73A9E5",
"V. c #7CABE4",
"C. c #7EAAEB",
"Z. c #76A5E6",
"A. c #79ADF5",
"S. c #71A6F3",
"D. c #75B0EC",
"F. c #7AB3EB",
"G. c #75BBFE",
"H. c #79BDFE",
"J. c #78B5F1",
"K. c #7DC0FE",
"L. c #928F9A",
"P. c #85A1BE",
"I. c #A7A3AD",
"U. c #ACACBA",
"Y. c #B2B2BF",
"T. c #8C9FD2",
"R. c #969FC6",
"E. c #8CA0DA",
"W. c #87AFD6",
"Q. c #98A9CA",
"!. c #9DAAD8",
"~. c #9AB2CA",
"^. c #82A8E5",
"/. c #82B3EB",
"(. c #8BB2EA",
"). c #88B7E8",
"_. c #85BAF3",
"`. c #8AB9F1",
"'. c #94ADE4",
"]. c #96BAEB",
"[. c #91BEFB",
"{. c #A0ACD8",
"}. c #A0B2D5",
"|. c #A2BCD6",
" X c #ACB4D9",
".X c #ABB3D8",
"XX c #BEBECB",
"oX c #B7B6C2",
"OX c #B4B9DA",
"+X c #BABCDB",
"@X c #B9B6D4",
"#X c #ACBEE6",
"$X c #A5B8E7",
"%X c #84C3FE",
"&X c #89C6FF",
"*X c #8DC8FE",
"=X c #93CBFF",
"-X c #9AC4F4",
";X c #9ACEFD",
":X c #9CC9F7",
">X c #9DD0FF",
",X c #ABC3DB",
"<X c #AAC3EC",
"1X c #A1C3F5",
"2X c #AAC5F1",
"3X c #A7CAF5",
"4X c #A3D3FF",
"5X c #AAD5FD",
"6X c #AED8FF",
"7X c #ABD0F6",
"8X c #B1CBE5",
"9X c #B9C8EC",
"0X c #B1C6EB",
"qX c #B9CCF1",
"wX c #BAD4ED",
"eX c #B4D1F2",
"rX c #B3DBFE",
"tX c #BAD4F1",
"yX c #B9DDFE",
"uX c #B5D7FA",
"iX c #BDE0FE",
"pX c #CFB6BE",
"aX c #D2A3A8",
"sX c #EBBBBF",
"dX c #CBBDD2",
"fX c #C1C1CB",
"gX c #C4C4D2",
"hX c #C6C6DA",
"jX c #CBCBD3",
"kX c #CACADC",
"lX c #C6C9DB",
"zX c #D8D5DB",
"xX c #CCCDE1",
"cX c #C3D7EB",
"vX c #C9DFF5",
"bX c #DEDEE3",
"nX c #C2E3FE",
"mX c #CAE8FF",
"MX c #C9E3FA",
"NX c #DBE0EB",
"BX c #D4E5F7",
"VX c #E7CDD0",
"CX c #F8C4C5",
"ZX c #FCD2D2",
"AX c #F3DADD",
"SX c #E4E4EA",
"DX c #E9E9EE",
"FX c #ECE7EB",
"GX c #E3EEFA",
"HX c #EDEDF1",
"JX c #E4F3FE",
"KX c #F1F1F4",
"LX c #F6F6F8",
"PX c #FDF2F2",
"IX c #FCFCFD",
"UX c #F2F8FD",
"YX c None",
/* pixels */
"YXYXYXYXYXYXYXYXYXYXYXYXYXYXYXYXYXYXYXYXYXYXYXYXYXYXYXYXYXYXYXYX",
"YXYXYXYXYXv ^ 4.l.^.).).V.l.3.n c YXYXYXYXYXYXYXYXYXYXYXYXYXYXYX",
"YXYXYXt M <.(.qXtX0X#X<X0XtX7Xl.O.* YXYXYXYXYXYXYXYXYXYXYXYXYXYX",
"YXYXYXK 3.2X<X!.@XxXgXkXkX X!.eX].o.3 YXYXYXYXYXYXYXYXYXYXYXYXYX",
"YXYXy 3.-X'.OXjXDXKXSXHXHXSXgX.X'.).O./ / J t r YXYXYXYXYXYXYXYX",
"YXe @.`.E.xXDXHXLXIXIXLXIXLXHXFXOX^.C.}.tX].4.J r t YXYXYXYXYXYX",
"YXG h.Z.R.bXHXIXIXIXIXIXIXIXLXKXSXE.A.f.NXUXJXiXi.K e YXYXYXYXYX",
"YX( h.f.dXU.,XHXIXIXIXIXIXIXIXIXSXlXi.k.}.GXGXGXnX/.T r YXYXYXYX",
"YX( 8.$XDXSXjXY.jXKXIXPXPXLXKXFXKXSXT.8.d.BXBXBXBXuX_.#.9 YXYXYX",
"YX~ } hXHXLXIXDXfXoXjXaXpXXXY.jXKXSX!. .+.vXMXMXvXvX).c.L & YXYX",
"YXQ ] dXbXIXIXIXIXzXI.L.XXbXHXLXUXzXQ.] o.wXwXwXwXwXwX5.z.F   YX",
"YXQ } hXHXIXIXIXIXCXVXbXKXIXIXIXUXSX{.} o.wXwX8X8X8X8XW.=.$.+ YX",
"YXQ 8.#XDXLXIXIXZXCXIXIXIXIXIXIXLXSXT. .>.cX,X,X,X,X>.z a x.j X ",
"YX! 8.T.kXDXUXZXCXIXIXIXIXIXIXIXSXhXk.7.:.P.~.~.d...s , < O.#.@ ",
"YXi &.C.@XDXAXCXPXIXIXIXIXIXLXKXSX{.S.@.:.:.:.7 6 : ; ; : s a.3 ",
"YX8 W j.'.dXsXFXLXLXIXLXIXKXHXSX@X(.7.f 6 4 4 > k 6 < p ; ; a.C ",
"YXYXi { S.$X@XjXDXHXSXDXHXSXgXOX$Xw.F < 4 < < < p k I Y Y z p.D ",
"YXYXYXu | b.<X+X+XkXfXhXhX+X+X1Xq.$.Y q p p p p p d *.,.e.*.l.Z ",
"YXYXYXYX' / _ A.2XqX9X9XqX-XA.&.9.G.5.g d d d d l 6.m.,.Y p._.Z ",
"YXYXYXYX' O.h m E ) $.$.%.&.7.t.M.N.e.z g g k d *.M.n.c.D.-X%X7 ",
"YXYXYXYX' 2.h l l l I t.y.y.y.y.m.y.t.I l l B ` N.G.5.R ;.F.l.2 ",
"YXYXYXYX^ a.N N B T <.M.m.y.y.y.r.y.y.` N N U 6.K.%Xz.B B 2.s.* ",
"YXYXYXYXv 5.` V ,.K.K.G.G.N.N.N.M.N.N.n.V U x.K.K.D.V.U U ).A O ",
"YXYXYXYXb ^ V.U D.=X%X%XK.K.K.G.G.G.G.H.x.J.%X&X_.v.;XV.a./.$   ",
"YXYXYXYXYXb 5.4.B.;X=X=X*X&X&X%X%X%X&X&X&X=X=X;X;X>X6XrX7XP . YX",
"YXYXYXYXYXv ^ F.a.;X4X;X;X;X=X=X=X=X=X=X;X;X;X4X5X6XrXiXs.*   YX",
"YXYXYXYXYXYX0 U :XrXrX6X4X4X4X4X4X4X4X4X4X5X6XrXyXiXnXV.= . YXYX",
"YXYXYXYXYXYXYX- R :XiXyXrXrXrX6X6X6X6XrXrXrXrXvXnXmXV.q X   YXYX",
"YXYXYXYXYXYXYXYX# m V.uXiX3X7X6XrXyXyXiXnXnXmXmX7X1.% . YXYXYXYX",
"YXYXYXYXYXYXYXYXYXO g #._.A.j.q.j.b.q.b.[.rXyXV.A * .   YXYXYXYX",
"YXYXYXYXYXYXYXYXYXYXYXX - I 1.4.j.h.0.0.<.#.j @     YXYXYXYXYXYX",
"YXYXYXYXYXYXYXYXYXYXYXYX. O = 1 5 7 7 3 * # X   YXYXYXYXYXYXYXYX"
};
