#define musicS_width 12
#define musicS_height 12
static unsigned char musicS_bits[] = {
   0x00, 0x00, 0x70, 0x00, 0xd0, 0x03, 0x90, 0x03, 0x10, 0x02, 0x10, 0x02,
   0x18, 0x02, 0x0e, 0x02, 0xce, 0x02, 0xc6, 0x03, 0xc0, 0x01, 0x00, 0x00};
