/* XPM */
static char *wclock[] = {
/* columns rows colors chars-per-pixel */
"12 12 124 2",
"   c #000000010008",
".  c #014105AE0CFD",
"X  c #000004FD0FC4",
"o  c #01510454131B",
"O  c #0000070F1151",
"+  c #0262072713EC",
"@  c #03D00AD71E1E",
"#  c #052D0B431828",
"$  c #06060C101AB3",
"%  c #02BB0E062054",
"&  c #028B0DB2279F",
"*  c #040C149030B5",
"=  c #07F4177B337B",
"-  c #130B204C3A5E",
";  c #0DFA28785B5F",
":  c #19FA30BD53F8",
">  c #19FE32DB6044",
",  c #0CC1309C61B9",
"<  c #07033BBC7511",
"1  c #1E063E6667FC",
"2  c #25213E867BB7",
"3  c #284840ED6B53",
"4  c #2FD84D6D7E32",
"5  c #31F64CE57905",
"6  c #13E42D918498",
"7  c #0BCC42828141",
"8  c #147C483C8975",
"9  c #1FA442EF8C5C",
"0  c #1D154E5E8464",
"q  c #1E3E59C9A1D1",
"w  c #222A43C88935",
"e  c #356957CF86BA",
"r  c #3EBA5E2688AC",
"t  c #32D35CE99D08",
"y  c #22325ED6A30E",
"u  c #22FB604CA850",
"i  c #29CA61A5AFC7",
"p  c #390D675FABA7",
"a  c #355D6060BCD4",
"s  c #3A5E6F07BD30",
"d  c #33E87078BDED",
"f  c #3A2A76A2C336",
"g  c #3F937F0FC189",
"h  c #478B6CA49828",
"j  c #5C7C725290BC",
"k  c #5C7473CF9169",
"l  c #46D77090ADE1",
"z  c #45997303B813",
"x  c #43E0756DBCBC",
"c  c #464E72BABEF6",
"v  c #44507C4CBAFE",
"b  c #4B377AE6B827",
"n  c #54807DA9B1FD",
"m  c #49797AA2C437",
"M  c #58548454BF3F",
"N  c #4E8E9129DAE2",
"B  c #56F7812DC823",
"V  c #508C8808CC84",
"C  c #5ECA8A8AD548",
"Z  c #5AF78ECEDB97",
"A  c #5549925ED2BE",
"S  c #5C849AE6E908",
"D  c #5941A30EF595",
"F  c #6763890DC2DA",
"G  c #652590CCDAE6",
"H  c #8058A62AD3FF",
"J  c #6226A201E558",
"K  c #65B1A2AEE332",
"L  c #6068A67AEC43",
"P  c #625AAF2FF970",
"I  c #6BCFB73BFF3E",
"U  c #6E4EB904FF9F",
"Y  c #74E4BAE2FDB1",
"T  c #7C74B7DBF38B",
"R  c #82D6A64ED241",
"E  c #92EAA8E4D9BD",
"W  c #9605AE66E03F",
"Q  c #9DEDB92CD79B",
"!  c #91A1AB3FE332",
"~  c #A15DB9CDE4C4",
"^  c #A585B949E3B3",
"/  c #A87CBB8BE464",
"(  c #A9B1BD71E43F",
")  c #B048BFE3E30E",
"_  c #927AC448F5E9",
"`  c #926ACB12FFB7",
"'  c #93C7CBC7FFAB",
"]  c #95D5CCC8FF8F",
"[  c #9ADECF3AFF2A",
"{  c #9F77D169FF06",
"}  c #A787CFA7F7DF",
"|  c #A41BCF32FC0F",
" . c #A743D286FE2D",
".. c #AD10D813FF16",
"X. c #AFC3D80FFE61",
"o. c #B165CA3DE2C2",
"O. c #BA5AC6A6E302",
"+. c #B83CD595F387",
"@. c #BC78D4F0F29A",
"#. c #BBE3DE59FCCC",
"$. c #D80FCA62D013",
"%. c #D51CD470DB3A",
"&. c #C124CCACE8E4",
"*. c #C2BACCECE890",
"=. c #CDC5D353E6E6",
"-. c #CF02D417E702",
";. c #CA29E080F61D",
":. c #D504D961E827",
">. c #D78FDA0DE8A8",
",. c #D393D924E9D5",
"<. c #D7EBDB26E944",
"1. c #DCC0E033E8C0",
"2. c #DD8DDCD8E316",
"3. c #EDF5D6E6DBD3",
"4. c #F554DB8FDD20",
"5. c #E61DE61DEAEE",
"6. c #EC80EB12EE41",
"7. c #F40BF40BF6CA",
"8. c #F74AF6D2F8E0",
"9. c #FB0EF49CF5C1",
"0. c #FB5AF9A9FB06",
"q. c #FB56FB56FC9E",
"w. c #FC53FC53FD71",
"e. c None",
/* pixels */
"e.* e j j r = e.e.e.e.e.",
"@ B ) >.>.O.F 3 ; . e.e.",
"2 E 1.w.w.8.( ~ @.c & e.",
"w *.5.%.$.2.>.G ;.@.c # ",
"w *.0.4.6.q.,.C o.Q v , ",
"6 ! 3.9.w.7.^ l h 0 < t ",
"o a ! -.=.o.Z 8 7 y g b ",
"e.1 u d S D D i q L A M ",
"e., f K Y U I N J T V 5 ",
"e.+ d _ [ ' ` ] { ..R @ ",
"e.e.% n } |  .X.#.R -   ",
"e.e.e.. : p m z 5 $   e."
};
